<svg width="50" height="50" viewBox="0 0 50 50" fill="none" xmlns="http://www.w3.org/2000/svg">
<rect width="50" height="50" rx="8" fill="#5A5EED" fill-opacity="0.1"/>
<path d="M26.875 34C26.6253 34 26.3905 33.8755 26.251 33.6663L24.9738 31.75H23.5C23.086 31.75 22.75 31.414 22.75 31C22.75 30.586 23.086 30.25 23.5 30.25H25.375C25.6255 30.25 25.8595 30.3753 25.999 30.5838L26.782 31.7583L28.4538 28.414C28.5768 28.1695 28.822 28.0105 29.0958 28C29.3868 27.9932 29.6268 28.129 29.7678 28.363L31.7996 31.75H33.2501C33.6641 31.75 34.0001 32.086 34.0001 32.5C34.0001 32.914 33.6641 33.25 33.2501 33.25H31.3751C31.1118 33.25 30.8673 33.112 30.7323 32.8863L29.185 30.3078L27.5463 33.586C27.4263 33.8253 27.1885 33.9828 26.9215 33.9993C26.9065 34 26.8908 34 26.875 34Z" fill="#5A5EED"/>
<path d="M22.75 23.5001C24.8211 23.5001 26.5001 21.8211 26.5001 19.75C26.5001 17.6789 24.8211 16 22.75 16C20.6789 16 19 17.6789 19 19.75C19 21.8211 20.6789 23.5001 22.75 23.5001Z" fill="#5A5EED"/>
<path d="M21.25 31.0002C21.25 29.7597 22.2595 28.7502 23.5001 28.7502H25.3751C25.7643 28.7502 26.1393 28.8499 26.4686 29.0329L27.1128 27.7436C27.4406 27.0904 28.0646 26.6621 28.7733 26.5481C28.0908 25.6144 26.9958 25.0001 25.7501 25.0001H19.75C17.6793 25.0001 16 26.6794 16 28.7502V31.1877C16 31.4982 16.252 31.7502 16.5625 31.7502H21.388C21.304 31.5147 21.25 31.2642 21.25 31.0002Z" fill="#5A5EED"/>
</svg>
